<?xml version="1.0" standalone="no"?>
<!DOCTYPE svg PUBLIC "-//W3C//DTD SVG 20010904//EN"
 "http://www.w3.org/TR/2001/REC-SVG-20010904/DTD/svg10.dtd">
<svg version="1.0" xmlns="http://www.w3.org/2000/svg"
 width="2988.000000pt" height="2448.000000pt" viewBox="0 0 2988.000000 2448.000000"
 preserveAspectRatio="xMidYMid meet">

<g transform="translate(0.000000,2448.000000) scale(0.100000,-0.100000)"
fill="#000000" stroke="none">
<path d="M10071 23583 c-16 -16 -32 -40 -35 -55 -6 -25 -3 -28 19 -28 18 0 25
5 25 18 0 25 31 52 58 52 12 0 29 -11 38 -25 23 -36 8 -64 -59 -111 -58 -41
-87 -78 -87 -113 0 -20 5 -21 100 -21 93 0 100 1 100 20 0 18 -7 20 -76 20
-89 0 -92 9 -18 57 71 47 94 77 94 123 0 30 -6 43 -31 64 -42 35 -89 35 -128
-1z"/>
<path d="M10321 23594 c-33 -24 -51 -74 -51 -144 0 -69 19 -123 48 -139 34
-18 100 -13 121 8 55 55 53 220 -4 269 -31 26 -81 29 -114 6z m93 -46 c19 -27
22 -144 4 -183 -15 -34 -62 -38 -85 -7 -20 25 -17 171 4 194 22 25 59 23 77
-4z"/>
<path d="M10602 23586 c-6 -15 -23 -27 -41 -31 -44 -9 -41 -35 4 -35 l35 0 0
-110 0 -110 25 0 25 0 0 155 c0 144 -1 155 -18 155 -11 0 -24 -11 -30 -24z"/>
<path d="M10838 23586 c-10 -14 -31 -27 -48 -31 -46 -10 -39 -35 10 -35 l40 0
0 -110 c0 -103 1 -110 20 -110 19 0 20 7 20 155 0 164 -6 181 -42 131z"/>
<path d="M14561 23583 c-16 -16 -32 -40 -35 -55 -6 -25 -3 -28 19 -28 18 0 25
5 25 18 0 25 31 52 58 52 12 0 29 -11 38 -25 23 -36 8 -64 -59 -111 -58 -41
-87 -78 -87 -113 0 -20 5 -21 100 -21 93 0 100 1 100 20 0 18 -7 20 -76 20
-89 0 -92 9 -18 57 71 47 94 77 94 123 0 30 -6 43 -31 64 -42 35 -89 35 -128
-1z"/>
<path d="M14811 23594 c-33 -24 -51 -74 -51 -144 0 -69 19 -123 48 -139 34
-18 100 -13 121 8 55 55 53 220 -4 269 -31 26 -81 29 -114 6z m93 -46 c19 -27
22 -144 4 -183 -15 -34 -62 -38 -85 -7 -20 25 -17 171 4 194 22 25 59 23 77
-4z"/>
<path d="M15092 23586 c-6 -15 -23 -27 -41 -31 -44 -9 -41 -35 4 -35 l35 0 0
-110 0 -110 25 0 25 0 0 155 c0 144 -1 155 -18 155 -11 0 -24 -11 -30 -24z"/>
<path d="M15298 23513 c-38 -54 -68 -108 -68 -120 0 -22 4 -23 65 -23 l65 0 0
-35 c0 -28 4 -35 20 -35 16 0 20 7 20 35 0 28 4 35 20 35 13 0 20 7 20 20 0
13 -7 20 -20 20 -19 0 -20 7 -20 100 0 132 -12 133 -102 3z m59 -100 c-3 -2
-23 -3 -46 -1 l-40 3 42 61 42 61 3 -60 c2 -32 1 -61 -1 -64z"/>
<path d="M15644 23600 c-28 -11 -54 -48 -54 -77 0 -35 33 -29 47 7 13 34 33
45 68 36 30 -8 43 -48 26 -79 -7 -12 -34 -37 -62 -55 -50 -33 -89 -83 -89
-114 0 -16 11 -18 100 -18 93 0 100 1 100 20 0 17 -8 19 -77 22 l-78 3 25 22
c14 12 45 37 70 56 59 43 75 76 60 122 -18 54 -79 78 -136 55z"/>
<path d="M21624 23600 c-28 -11 -54 -48 -54 -77 0 -35 32 -28 50 10 17 37 58
48 84 22 36 -36 17 -70 -77 -139 -37 -27 -67 -72 -67 -101 0 -12 16 -15 100
-15 93 0 100 1 100 20 0 18 -7 20 -75 20 -88 0 -91 11 -16 59 26 17 56 41 68
53 72 81 -11 189 -113 148z"/>
<path d="M21863 23600 c-41 -17 -57 -57 -58 -139 0 -81 16 -136 46 -151 10 -6
36 -10 59 -10 77 0 106 56 98 187 -4 59 -7 69 -36 94 -33 30 -67 36 -109 19z
m82 -50 c14 -16 18 -36 18 -94 0 -40 -6 -82 -12 -93 -17 -33 -50 -35 -78 -7
-23 23 -25 31 -22 103 3 46 10 85 18 94 18 23 54 21 76 -3z"/>
<path d="M22136 23586 c-8 -13 -29 -27 -46 -31 -46 -10 -39 -35 10 -35 l40 0
0 -110 c0 -103 1 -110 20 -110 19 0 20 7 20 155 0 125 -3 155 -14 155 -7 0
-21 -11 -30 -24z"/>
<path d="M22340 23603 c-34 -13 -50 -37 -50 -73 0 -21 6 -43 14 -49 13 -11 12
-15 -5 -32 -28 -28 -26 -93 6 -124 19 -20 34 -25 75 -25 41 0 56 5 75 25 31
30 34 96 7 123 -16 16 -17 22 -5 37 18 26 16 69 -5 95 -18 22 -82 35 -112 23z
m74 -49 c21 -21 20 -37 -4 -59 -26 -24 -68 -13 -76 20 -12 48 45 75 80 39z
m11 -134 c15 -16 17 -26 9 -48 -8 -22 -16 -28 -49 -30 -41 -4 -65 14 -65 49 0
46 72 66 105 29z"/>
<path d="M11100 23580 c0 -18 7 -20 76 -20 l75 0 -25 -33 c-35 -45 -74 -133
-82 -184 -6 -41 -5 -43 18 -43 23 0 26 5 32 48 7 53 45 141 82 189 44 57 37
63 -76 63 -93 0 -100 -1 -100 -20z"/>
<path d="M11366 23588 c-5 -17 -26 -129 -26 -140 0 -13 26 -9 59 10 28 15 33
16 58 2 22 -13 29 -24 31 -56 3 -47 -13 -66 -55 -66 -17 0 -35 9 -48 26 -23
29 -55 35 -55 10 0 -8 13 -29 29 -45 24 -23 38 -29 73 -29 24 0 53 7 64 15 51
35 55 122 8 166 -20 18 -36 24 -71 23 -41 -1 -44 1 -39 20 3 12 6 27 6 34 0 8
19 12 60 12 47 0 60 3 60 15 0 12 -15 15 -75 15 -52 0 -77 -4 -79 -12z"/>
<path d="M15830 23580 c0 -18 7 -20 70 -20 39 0 70 -2 70 -4 0 -2 -16 -27 -35
-56 -35 -52 -65 -134 -65 -177 0 -16 6 -23 19 -23 20 0 24 8 37 70 10 51 47
130 77 166 48 57 40 64 -73 64 -93 0 -100 -1 -100 -20z"/>
<path d="M11000 23325 c0 -20 5 -25 25 -25 20 0 25 5 25 25 0 20 -5 25 -25 25
-20 0 -25 -5 -25 -25z"/>
<path d="M15490 23325 c0 -20 5 -25 25 -25 20 0 25 5 25 25 0 20 -5 25 -25 25
-20 0 -25 -5 -25 -25z"/>
<path d="M10752 23112 c-9 -6 -12 -35 -10 -108 l3 -99 28 -3 28 -3 -3 108 c-2
86 -6 108 -18 110 -8 2 -21 -1 -28 -5z"/>
<path d="M15297 23114 c-4 -4 -7 -54 -7 -111 l0 -103 25 0 26 0 -3 107 c-2 88
-6 108 -18 111 -9 1 -19 0 -23 -4z"/>
<path d="M22017 23114 c-4 -4 -7 -54 -7 -111 l0 -104 28 3 27 3 0 105 c0 98
-1 105 -20 108 -12 2 -24 0 -28 -4z"/>
<path d="M10747 22683 c-4 -3 -7 -51 -7 -105 l0 -98 30 0 30 0 0 105 c0 103 0
105 -23 105 -13 0 -27 -3 -30 -7z"/>
<path d="M15290 22585 l0 -105 25 0 25 0 0 105 0 105 -25 0 -25 0 0 -105z"/>
<path d="M22010 22586 l0 -106 30 0 31 0 -3 103 -3 102 -27 3 -28 3 0 -105z"/>
<path d="M14715 22360 c-3 -5 15 -32 41 -60 l47 -51 -48 -49 c-41 -42 -46 -50
-31 -56 12 -5 30 6 62 37 l44 43 43 -42 c73 -71 96 -48 25 25 l-42 43 42 43
c37 37 55 77 36 77 -4 0 -29 -21 -56 -46 l-50 -46 -47 46 c-49 48 -56 52 -66
36z"/>
<path d="M10740 22155 l0 -105 30 0 30 0 0 105 0 105 -30 0 -30 0 0 -105z"/>
<path d="M15290 22155 l0 -105 25 0 25 0 0 105 0 105 -25 0 -25 0 0 -105z"/>
<path d="M22010 22155 l0 -105 30 0 30 0 0 105 0 105 -30 0 -30 0 0 -105z"/>
<path d="M10742 21728 l3 -103 28 -3 27 -3 0 105 0 106 -30 0 -31 0 3 -102z"/>
<path d="M15290 21725 l0 -105 25 0 25 0 0 105 0 105 -25 0 -25 0 0 -105z"/>
<path d="M22010 21724 l0 -105 28 3 27 3 3 103 3 102 -31 0 -30 0 0 -106z"/>
<path d="M16524 21716 c-5 -12 6 -30 37 -62 l43 -44 -42 -43 c-71 -73 -48 -96
25 -25 l43 42 44 -43 c32 -31 50 -42 62 -37 15 6 10 14 -31 56 l-49 50 49 50
c41 42 46 50 31 56 -12 5 -30 -6 -62 -37 l-44 -43 -50 49 c-42 41 -50 46 -56
31z"/>
<path d="M2184 21670 c-44 -17 -59 -58 -59 -157 0 -77 3 -96 21 -120 44 -59
123 -51 156 17 26 51 25 174 -2 218 -28 45 -70 61 -116 42z m83 -47 c14 -20
18 -47 18 -108 0 -98 -18 -135 -65 -135 -36 0 -56 27 -65 92 -7 49 8 142 27
165 19 23 66 16 85 -14z"/>
<path d="M2434 21670 c-44 -17 -59 -58 -59 -157 0 -77 3 -96 21 -120 44 -59
123 -51 156 17 26 51 25 174 -2 218 -28 45 -70 61 -116 42z m83 -47 c14 -20
18 -47 18 -108 0 -98 -18 -135 -65 -135 -36 0 -56 27 -65 92 -7 49 8 142 27
165 19 23 66 16 85 -14z"/>
<path d="M1948 21575 c-38 -53 -68 -104 -68 -115 0 -18 7 -20 65 -20 l65 0 0
-40 c0 -29 4 -40 15 -40 11 0 15 11 15 40 0 36 3 40 25 40 16 0 25 6 25 15 0
9 -9 15 -25 15 l-25 0 0 100 c0 73 -3 100 -12 100 -7 0 -43 -43 -80 -95z m62
-40 l0 -65 -51 0 c-28 0 -49 3 -47 8 8 20 84 121 91 122 4 0 7 -29 7 -65z"/>
<path d="M10744 21397 c-3 -8 -3 -56 -2 -108 3 -93 3 -94 28 -94 25 0 25 0 28
108 l3 107 -26 0 c-14 0 -28 -6 -31 -13z"/>
<path d="M15292 21303 c3 -100 4 -108 23 -108 19 0 20 8 23 108 l3 107 -26 0
-26 0 3 -107z"/>
<path d="M22012 21303 c3 -108 3 -108 28 -108 l25 0 0 105 0 105 -28 3 -28 3
3 -108z"/>
<path d="M10740 20875 l0 -105 30 0 30 0 0 105 0 105 -30 0 -30 0 0 -105z"/>
<path d="M15290 20945 c0 -20 -6 -38 -12 -40 -98 -34 -132 -51 -168 -86 -47
-46 -90 -129 -90 -176 0 -17 -3 -34 -7 -36 -5 -3 -50 2 -101 11 -55 9 -96 11
-101 6 -4 -5 -413 -810 -909 -1789 l-900 -1781 -896 -1409 -896 -1410 -73 -27
c-39 -15 -73 -28 -74 -28 -2 0 -14 22 -27 48 -39 78 -118 137 -208 156 l-28 6
0 95 0 95 -30 0 -30 0 0 -94 0 -94 -49 -15 c-151 -44 -242 -200 -209 -357 l8
-35 -138 -47 c-889 -302 -852 -288 -852 -319 l0 -28 368 126 c202 69 428 146
503 171 l137 46 46 -48 c84 -86 200 -115 312 -80 46 14 72 31 115 73 62 62 89
124 89 202 l0 48 85 27 85 28 903 1421 904 1421 893 1764 c491 971 896 1769
900 1774 5 5 46 3 94 -4 l86 -13 10 -38 c14 -52 66 -117 123 -156 122 -82 283
-61 382 49 l45 50 518 -87 517 -87 80 -76 c44 -42 449 -435 900 -873 l820
-796 911 -794 911 -794 761 -595 c658 -514 760 -598 754 -615 -4 -11 -7 -54
-7 -95 1 -83 19 -130 77 -195 33 -39 102 -78 156 -90 l32 -7 0 -64 0 -64 29 0
c16 0 31 5 33 10 2 6 395 -2017 873 -4496 l870 -4506 904 -1157 c497 -636 908
-1159 915 -1162 31 -19 1797 -570 1806 -564 5 3 10 15 10 25 0 15 -17 24 -77
43 -43 13 -446 140 -895 282 l-818 259 -887 1134 c-489 624 -894 1147 -900
1161 -9 19 -1708 8786 -1758 9071 -6 35 -5 35 50 59 224 96 230 429 8 537 -82
41 -183 41 -265 1 -32 -16 -73 -47 -92 -69 -26 -30 -39 -38 -48 -31 -7 5 -353
275 -768 600 l-755 590 -905 790 -905 790 -889 864 c-489 475 -894 867 -901
871 -7 4 -243 46 -526 93 -282 47 -514 87 -516 89 -2 1 1 23 6 49 28 154 -79
314 -232 342 -35 7 -37 9 -37 46 0 35 -3 39 -25 39 -22 0 -25 -4 -25 -35z m0
-131 c0 -40 2 -44 25 -44 23 0 25 3 25 50 0 50 0 50 28 44 123 -28 211 -134
212 -254 0 -30 -3 -66 -7 -78 -7 -27 -15 -27 -193 8 -52 10 -148 26 -214 36
l-118 18 5 49 c12 94 87 184 177 211 25 7 48 12 53 9 4 -2 7 -24 7 -49z m-120
-294 c133 -22 120 -11 120 -101 0 -72 -2 -79 -20 -79 -54 0 -150 67 -184 130
-32 59 -33 72 -3 65 12 -2 51 -9 87 -15z m302 -51 c67 -11 67 -11 52 -34 -28
-42 -119 -95 -165 -95 -17 0 -19 8 -19 76 l0 76 33 -6 c17 -3 62 -10 99 -17z
m6682 -4581 c96 -48 150 -134 149 -238 0 -77 -17 -122 -68 -178 -33 -37 -120
-90 -130 -80 -3 2 -11 38 -20 79 -8 41 -17 83 -20 95 -2 11 -61 64 -130 118
-139 108 -138 105 -69 165 81 72 193 87 288 39z m-250 -248 c110 -86 114 -91
121 -136 3 -26 9 -53 12 -60 3 -8 -1 -14 -10 -14 -9 0 -17 -10 -19 -24 l-3
-25 -53 18 c-55 19 -122 75 -147 122 -24 46 -38 117 -31 164 4 25 9 45 12 45
3 0 56 -40 118 -90z m-11019 -1309 c49 -23 100 -72 126 -123 15 -29 17 -40 7
-43 -7 -3 -59 -20 -115 -39 l-103 -35 0 30 c0 26 -3 29 -30 29 -28 0 -30 -2
-30 -39 l0 -39 -106 -38 c-116 -41 -122 -40 -125 21 -8 150 69 260 206 296 42
11 122 1 170 -20z m152 -271 c-21 -178 -206 -284 -373 -214 -35 14 -114 80
-114 94 0 7 162 70 181 70 5 0 9 -16 9 -35 0 -32 2 -35 30 -35 29 0 30 1 30
48 l0 48 108 36 c59 20 113 37 121 37 11 1 12 -10 8 -49z"/>
<path d="M22010 15755 l0 -105 30 0 30 0 0 105 0 105 -30 0 -30 0 0 -105z"/>
<path d="M22010 20875 l0 -105 30 0 30 0 0 105 0 105 -30 0 -30 0 0 -105z"/>
<path d="M10740 20445 l0 -105 30 0 30 0 0 105 0 105 -30 0 -30 0 0 -105z"/>
<path d="M22010 20445 l0 -105 30 0 30 0 0 105 0 105 -30 0 -30 0 0 -105z"/>
<path d="M10744 20117 c-3 -8 -3 -56 -2 -108 3 -93 3 -94 28 -94 25 0 25 0 28
108 l3 107 -26 0 c-14 0 -28 -6 -31 -13z"/>
<path d="M15290 20019 c0 -109 0 -110 23 -107 21 3 22 8 25 111 l3 107 -26 0
-25 0 0 -111z"/>
<path d="M22012 20023 c3 -108 3 -108 28 -108 l25 0 0 105 0 105 -28 3 -28 3
3 -108z"/>
<path d="M10740 19595 l0 -105 30 0 30 0 0 105 0 105 -30 0 -30 0 0 -105z"/>
<path d="M15290 19595 l0 -105 25 0 25 0 0 105 0 105 -25 0 -25 0 0 -105z"/>
<path d="M22010 19595 l0 -105 30 0 30 0 0 105 0 105 -30 0 -30 0 0 -105z"/>
<path d="M10740 19165 l0 -105 30 0 30 0 0 105 0 105 -30 0 -30 0 0 -105z"/>
<path d="M15290 19165 l0 -105 25 0 25 0 0 105 0 105 -25 0 -25 0 0 -105z"/>
<path d="M22010 19165 l0 -105 30 0 30 0 0 105 0 105 -30 0 -30 0 0 -105z"/>
<path d="M10744 18837 c-3 -8 -3 -56 -2 -108 3 -93 3 -94 28 -94 25 0 25 0 28
108 l3 107 -26 0 c-14 0 -28 -6 -31 -13z"/>
<path d="M15290 18740 l0 -110 25 0 25 0 0 110 0 110 -25 0 -25 0 0 -110z"/>
<path d="M22012 18743 c3 -108 3 -108 28 -108 l25 0 0 105 0 105 -28 3 -28 3
3 -108z"/>
<path d="M21926 18503 c-3 -4 15 -28 41 -55 l47 -48 -49 -50 c-41 -41 -46 -50
-31 -56 11 -4 27 3 47 22 l29 28 0 -67 0 -67 30 0 30 0 0 67 0 67 28 -27 c15
-15 33 -27 40 -27 23 0 12 24 -30 67 l-42 43 42 43 c71 73 48 96 -25 25 l-43
-42 -43 42 c-42 41 -57 49 -71 35z"/>
<path d="M10740 18315 l0 -105 30 0 30 0 0 105 0 105 -30 0 -30 0 0 -105z"/>
<path d="M15290 18315 l0 -105 25 0 25 0 0 105 0 105 -25 0 -25 0 0 -105z"/>
<path d="M10740 17885 l0 -105 30 0 30 0 0 105 0 105 -30 0 -30 0 0 -105z"/>
<path d="M15290 17885 l0 -105 25 0 25 0 0 105 0 105 -25 0 -25 0 0 -105z"/>
<path d="M22010 17885 l0 -105 30 0 30 0 0 105 0 105 -30 0 -30 0 0 -105z"/>
<path d="M9310 17628 c0 -7 19 -32 42 -55 l42 -43 -42 -43 c-71 -73 -48 -96
25 -25 l43 42 43 -42 c73 -71 96 -48 25 25 l-42 43 49 50 c41 42 46 50 31 56
-12 5 -30 -6 -62 -37 l-44 -43 -43 42 c-43 42 -67 53 -67 30z"/>
<path d="M10745 17557 c-3 -7 -4 -56 -3 -108 3 -93 3 -94 28 -94 l25 0 0 105
c0 101 -1 105 -23 108 -12 2 -24 -3 -27 -11z"/>
<path d="M15290 17460 l0 -110 25 0 25 0 0 110 0 110 -25 0 -25 0 0 -110z"/>
<path d="M22015 17557 c-3 -7 -4 -56 -3 -108 3 -93 3 -94 28 -94 l25 0 0 105
c0 101 -1 105 -23 108 -12 2 -24 -3 -27 -11z"/>
<path d="M10740 17035 l0 -105 30 0 30 0 0 105 0 105 -30 0 -30 0 0 -105z"/>
<path d="M15290 17035 l0 -105 25 0 25 0 0 105 0 105 -25 0 -25 0 0 -105z"/>
<path d="M22010 17035 l0 -105 30 0 30 0 0 105 0 105 -30 0 -30 0 0 -105z"/>
<path d="M1934 17076 c-22 -10 -35 -25 -44 -51 -7 -20 -9 -39 -6 -42 11 -11
36 7 36 26 0 52 77 70 107 25 15 -24 15 -29 2 -53 -9 -16 -25 -27 -42 -29 -35
-4 -36 -32 -2 -32 14 0 34 -9 45 -20 45 -45 9 -114 -58 -108 -31 2 -40 9 -52
35 -18 38 -51 46 -43 11 8 -33 41 -66 74 -73 38 -8 95 11 114 38 22 32 19 93
-6 118 -19 19 -19 22 -5 38 18 20 21 63 6 91 -9 17 -59 40 -84 40 -6 -1 -25
-7 -42 -14z"/>
<path d="M2184 17080 c-44 -17 -59 -58 -59 -157 0 -77 3 -96 21 -120 44 -59
123 -51 156 17 26 51 25 174 -2 218 -28 45 -70 61 -116 42z m83 -47 c14 -20
18 -47 18 -108 0 -98 -18 -135 -65 -135 -36 0 -56 27 -65 92 -7 49 8 142 27
165 19 23 66 16 85 -14z"/>
<path d="M2434 17080 c-44 -17 -59 -58 -59 -157 0 -77 3 -96 21 -120 44 -59
123 -51 156 17 26 51 25 174 -2 218 -28 45 -70 61 -116 42z m83 -47 c14 -20
18 -47 18 -108 0 -98 -18 -135 -65 -135 -36 0 -56 27 -65 92 -7 49 8 142 27
165 19 23 66 16 85 -14z"/>
<path d="M10740 16605 l0 -105 30 0 30 0 0 105 0 105 -30 0 -30 0 0 -105z"/>
<path d="M15290 16605 l0 -105 25 0 25 0 0 105 0 105 -25 0 -25 0 0 -105z"/>
<path d="M22010 16605 l0 -105 30 0 30 0 0 105 0 105 -30 0 -30 0 0 -105z"/>
<path d="M20287 16362 l-47 -46 -43 42 c-38 37 -77 55 -77 35 0 -4 21 -29 47
-55 l47 -48 -47 -48 c-26 -26 -47 -51 -47 -55 0 -20 39 -2 77 35 l43 42 43
-42 c43 -42 67 -53 67 -30 0 7 -19 32 -42 55 l-42 43 42 43 c23 23 42 48 42
54 0 27 -19 19 -63 -25z"/>
<path d="M10745 16277 c-3 -7 -4 -56 -3 -108 3 -93 3 -94 28 -94 l25 0 0 105
c0 101 -1 105 -23 108 -12 2 -24 -3 -27 -11z"/>
<path d="M15290 16180 l0 -110 25 0 25 0 0 110 0 110 -25 0 -25 0 0 -110z"/>
<path d="M22015 16277 c-3 -7 -4 -56 -3 -108 3 -93 3 -94 28 -94 l25 0 0 105
c0 101 -1 105 -23 108 -12 2 -24 -3 -27 -11z"/>
<path d="M7504 16259 c-3 -6 14 -32 39 -57 l46 -47 -46 -48 c-34 -36 -43 -51
-34 -60 8 -8 22 0 54 31 23 23 47 42 53 42 5 0 28 -18 49 -40 21 -22 45 -40
52 -40 24 0 13 26 -27 65 -22 21 -40 44 -40 49 0 6 19 30 42 53 31 32 39 46
31 54 -8 8 -24 -1 -60 -35 l-49 -45 -44 44 c-47 47 -55 52 -66 34z"/>
<path d="M1060 16115 c0 -22 -4 -25 -40 -25 -33 0 -40 -3 -40 -20 0 -17 7 -20
40 -20 33 0 40 -3 40 -20 0 -13 7 -20 20 -20 13 0 20 7 20 20 0 19 7 20 120
20 130 0 140 4 140 64 0 34 -37 37 -42 4 -3 -22 -8 -23 -110 -26 l-108 -3 0
26 c0 18 -5 25 -20 25 -15 0 -20 -7 -20 -25z"/>
<path d="M12914 16119 c-3 -6 14 -32 40 -58 l46 -46 -47 -48 c-37 -37 -45 -49
-35 -59 10 -10 22 -2 60 35 l47 47 48 -47 c37 -37 49 -45 59 -35 10 10 2 22
-35 60 l-47 48 45 44 c45 44 57 70 32 70 -7 0 -33 -20 -57 -45 l-44 -45 -46
45 c-49 48 -55 51 -66 34z"/>
<path d="M1115 15963 c-57 -14 -79 -79 -47 -143 15 -31 16 -40 6 -40 -8 0 -14
-9 -14 -20 0 -19 7 -20 150 -20 141 0 150 1 150 19 0 18 -10 20 -109 23 -100
3 -112 5 -135 27 -31 29 -34 71 -8 94 15 14 41 17 135 17 l117 0 0 25 0 25
-112 -1 c-62 -1 -122 -4 -133 -6z"/>
<path d="M10740 15755 l0 -105 30 0 30 0 0 105 0 105 -30 0 -30 0 0 -105z"/>
<path d="M15290 15755 l0 -105 25 0 25 0 0 105 0 105 -25 0 -25 0 0 -105z"/>
<path d="M1060 15630 c0 -19 7 -20 94 -20 136 0 176 -19 176 -84 0 -45 -32
-56 -157 -56 -106 0 -113 -1 -113 -20 0 -19 7 -20 129 -20 158 0 176 9 176 88
0 35 -6 56 -19 71 -17 19 -17 21 -3 21 10 0 17 8 17 20 0 19 -7 20 -150 20
-143 0 -150 -1 -150 -20z"/>
<path d="M10740 15325 l0 -105 30 0 30 0 0 105 0 105 -30 0 -30 0 0 -105z"/>
<path d="M15290 15325 l0 -105 25 0 25 0 0 105 0 105 -25 0 -25 0 0 -105z"/>
<path d="M1123 15345 c-61 -26 -88 -105 -59 -167 48 -101 243 -106 293 -8 31
62 3 143 -60 173 -42 20 -130 22 -174 2z m187 -60 c31 -28 25 -91 -12 -118
-50 -37 -184 -19 -202 28 -12 33 -5 67 20 92 23 23 31 25 99 21 55 -2 79 -8
95 -23z"/>
<path d="M18320 15288 c0 -7 19 -32 42 -55 l42 -43 -42 -43 c-42 -43 -53 -67
-30 -67 7 0 32 19 55 42 l43 42 43 -42 c38 -37 77 -55 77 -35 0 4 -21 29 -47
55 l-47 48 47 48 c26 26 47 51 47 55 0 20 -39 2 -77 -35 l-43 -42 -43 42 c-43
42 -67 53 -67 30z"/>
<path d="M1031 15043 c-85 -42 -105 -175 -39 -259 52 -65 201 -87 289 -41 118
61 115 244 -4 301 -49 23 -67 21 -67 -7 0 -19 8 -26 39 -36 107 -32 110 -173
5 -217 -83 -35 -218 -5 -248 55 -33 62 -9 139 50 161 17 7 24 17 24 35 0 29
-4 30 -49 8z"/>
<path d="M10745 14997 c-3 -7 -4 -56 -3 -108 l3 -94 28 -3 28 -3 -3 108 c-3
103 -4 108 -26 111 -12 2 -24 -3 -27 -11z"/>
<path d="M15290 14900 l0 -110 25 0 25 0 0 110 0 110 -25 0 -25 0 0 -110z"/>
<path d="M22017 15004 c-4 -4 -7 -54 -7 -111 l0 -104 28 3 27 3 0 105 c0 98
-1 105 -20 108 -12 2 -24 0 -28 -4z"/>
<path d="M15290 14475 l0 -105 25 0 25 0 0 105 0 105 -25 0 -25 0 0 -105z"/>
<path d="M22010 14475 l0 -105 30 0 30 0 0 105 0 105 -30 0 -30 0 0 -105z"/>
<path d="M1130 14503 c-31 -11 -70 -58 -76 -90 -4 -24 0 -42 15 -68 16 -28 17
-35 6 -35 -9 0 -15 -10 -15 -25 l0 -25 205 0 205 0 0 25 c0 24 -2 25 -65 25
l-66 0 17 32 c29 57 5 121 -58 154 -26 14 -137 18 -168 7z m170 -62 c37 -27
39 -82 4 -110 -50 -39 -190 -23 -208 24 -26 70 35 120 134 110 25 -3 56 -13
70 -24z"/>
<path d="M1123 14185 c-61 -26 -88 -105 -59 -167 48 -101 243 -106 293 -8 31
62 3 143 -60 173 -42 20 -130 22 -174 2z m187 -60 c31 -28 25 -91 -12 -118
-50 -37 -184 -19 -202 28 -12 33 -5 67 20 92 23 23 31 25 99 21 55 -2 79 -8
95 -23z"/>
<path d="M15290 14045 l0 -105 25 0 25 0 0 105 0 105 -25 0 -25 0 0 -105z"/>
<path d="M22010 14045 l0 -105 30 0 30 0 0 105 0 105 -30 0 -30 0 0 -105z"/>
<path d="M11110 14007 c0 -7 20 -33 45 -57 l45 -44 -47 -48 c-37 -38 -45 -50
-35 -60 10 -10 22 -2 60 35 l47 47 48 -47 c37 -38 49 -45 59 -35 10 10 3 22
-35 59 l-47 48 47 47 c37 38 45 50 35 60 -10 10 -22 2 -60 -35 l-48 -47 -44
45 c-44 45 -70 57 -70 32z"/>
<path d="M960 13860 c0 -19 7 -20 200 -20 193 0 200 1 200 20 0 19 -7 20 -200
20 -193 0 -200 -1 -200 -20z"/>
<path d="M960 13740 c0 -19 7 -20 200 -20 193 0 200 1 200 20 0 19 -7 20 -200
20 -193 0 -200 -1 -200 -20z"/>
<path d="M10745 13717 c-3 -7 -4 -56 -3 -108 l3 -94 28 -3 28 -3 -3 108 c-3
103 -4 108 -26 111 -12 2 -24 -3 -27 -11z"/>
<path d="M15290 13620 l0 -110 25 0 25 0 0 110 0 110 -25 0 -25 0 0 -110z"/>
<path d="M22017 13724 c-4 -4 -7 -54 -7 -111 l0 -104 28 3 27 3 0 105 c0 98
-1 105 -20 108 -12 2 -24 0 -28 -4z"/>
<path d="M1330 13645 c0 -12 -19 -15 -115 -15 -132 0 -148 -8 -160 -79 -12
-71 26 -141 77 -141 27 0 22 35 -7 48 -45 21 -46 103 0 124 35 16 52 -2 60
-65 10 -72 28 -103 68 -116 89 -30 147 59 98 150 -19 35 -19 36 0 47 26 17 26
62 -1 62 -11 0 -20 -7 -20 -15z m-22 -91 c38 -43 21 -114 -28 -114 -18 0 -50
24 -50 38 -1 4 -5 27 -10 52 -4 25 -6 49 -3 53 9 15 68 -4 91 -29z"/>
<path d="M4012 13595 c0 -16 2 -22 5 -12 2 9 2 23 0 30 -3 6 -5 -1 -5 -18z"/>
<path d="M1120 13353 c-57 -21 -83 -97 -54 -158 23 -49 76 -75 152 -75 117 0
184 89 137 180 -14 28 -60 60 -85 60 -24 0 -8 -39 25 -59 29 -17 35 -26 35
-55 0 -25 -7 -40 -26 -55 -50 -39 -190 -22 -208 24 -17 44 1 82 47 98 9 4 17
16 17 27 0 20 -11 24 -40 13z"/>
<path d="M10740 13195 l0 -105 30 0 30 0 0 105 0 105 -30 0 -30 0 0 -105z"/>
<path d="M15290 13195 l0 -105 25 0 25 0 0 105 0 105 -25 0 -25 0 0 -105z"/>
<path d="M22010 13195 l0 -105 30 0 30 0 0 105 0 105 -30 0 -30 0 0 -105z"/>
<path d="M1185 13048 c-19 -17 -33 -48 -51 -113 -30 -104 -37 -115 -74 -115
-39 0 -70 41 -70 92 0 30 7 46 29 69 16 16 37 29 45 29 10 0 16 9 16 25 0 29
-8 30 -55 11 -78 -33 -98 -182 -32 -245 13 -12 40 -24 60 -28 58 -9 83 14 107
100 32 108 46 136 75 143 56 14 95 -28 95 -101 0 -61 -21 -89 -82 -109 -26 -8
-23 -46 2 -46 31 0 75 26 94 54 41 64 28 186 -26 231 -39 33 -97 34 -133 3z"/>
<path d="M10740 12765 l0 -105 30 0 30 0 0 105 0 105 -30 0 -30 0 0 -105z"/>
<path d="M15290 12765 l0 -105 25 0 25 0 0 105 0 105 -25 0 -25 0 0 -105z"/>
<path d="M22010 12765 l0 -105 30 0 30 0 0 105 0 105 -30 0 -30 0 0 -105z"/>
<path d="M960 12520 c0 -19 7 -20 200 -20 193 0 200 1 200 20 0 19 -7 20 -200
20 -193 0 -200 -1 -200 -20z"/>
<path d="M1944 12501 c-44 -19 -75 -101 -39 -101 8 0 15 8 15 18 0 60 84 86
116 36 26 -38 9 -72 -63 -124 -59 -43 -93 -88 -93 -124 0 -14 15 -16 100 -16
82 0 100 3 100 15 0 12 -16 15 -80 15 -60 0 -80 3 -80 13 0 15 31 45 75 71 61
37 85 67 85 107 0 69 -73 117 -136 90z"/>
<path d="M2184 12500 c-44 -17 -59 -58 -59 -157 0 -77 3 -96 21 -120 44 -59
123 -51 156 17 26 51 25 174 -2 218 -28 45 -70 61 -116 42z m83 -47 c14 -20
18 -47 18 -108 0 -98 -18 -135 -65 -135 -36 0 -56 27 -65 92 -7 49 8 142 27
165 19 23 66 16 85 -14z"/>
<path d="M2434 12500 c-44 -17 -59 -58 -59 -157 0 -77 3 -96 21 -120 44 -59
123 -51 156 17 26 51 25 174 -2 218 -28 45 -70 61 -116 42z m83 -47 c14 -20
18 -47 18 -108 0 -98 -18 -135 -65 -135 -36 0 -56 27 -65 92 -7 49 8 142 27
165 19 23 66 16 85 -14z"/>
<path d="M10745 12437 c-3 -7 -4 -56 -3 -108 l3 -94 28 -3 28 -3 -3 108 c-3
103 -4 108 -26 111 -12 2 -24 -3 -27 -11z"/>
<path d="M15297 12444 c-4 -4 -7 -54 -7 -111 l0 -103 25 0 26 0 -3 107 c-2 88
-6 108 -18 111 -9 1 -19 0 -23 -4z"/>
<path d="M22017 12444 c-4 -4 -7 -54 -7 -111 l0 -104 28 3 27 3 0 105 c0 98
-1 105 -20 108 -12 2 -24 0 -28 -4z"/>
<path d="M960 12390 c0 -19 7 -20 200 -20 193 0 200 1 200 20 0 19 -7 20 -200
20 -193 0 -200 -1 -200 -20z"/>
<path d="M1330 12305 c0 -12 -19 -15 -115 -15 -132 0 -148 -8 -160 -79 -12
-71 26 -141 77 -141 27 0 22 35 -7 48 -45 21 -46 103 0 124 35 16 52 -2 60
-65 10 -72 28 -103 68 -116 89 -30 147 59 98 150 -19 35 -19 36 0 47 26 17 26
62 -1 62 -11 0 -20 -7 -20 -15z m-22 -91 c38 -43 21 -114 -28 -114 -18 0 -50
24 -50 38 -1 4 -5 27 -10 52 -4 25 -6 49 -3 53 9 15 68 -4 91 -29z"/>
<path d="M10747 12013 c-4 -3 -7 -51 -7 -105 l0 -98 30 0 30 0 0 105 c0 103 0
105 -23 105 -13 0 -27 -3 -30 -7z"/>
<path d="M15290 11915 l0 -105 25 0 25 0 0 105 0 105 -25 0 -25 0 0 -105z"/>
<path d="M22010 11916 l0 -106 30 0 31 0 -3 103 -3 102 -27 3 -28 3 0 -105z"/>
<path d="M960 11875 l0 -135 200 0 200 0 0 25 c0 25 -1 25 -90 25 l-90 0 0 95
c0 95 0 95 -25 95 -25 0 -25 0 -25 -95 l0 -95 -60 0 -60 0 0 110 0 110 -25 0
-25 0 0 -135z"/>
<path d="M3900 11577 c0 -7 18 -31 40 -52 22 -21 40 -44 40 -50 0 -6 -18 -29
-40 -50 -40 -39 -51 -65 -27 -65 7 0 33 20 57 45 l44 45 48 -47 c38 -37 50
-45 60 -35 10 10 2 22 -35 59 l-47 48 47 47 c37 38 45 50 35 60 -10 10 -22 2
-60 -35 l-48 -47 -44 45 c-44 45 -70 57 -70 32z"/>
<path d="M10740 11485 l0 -105 30 0 30 0 0 105 0 105 -30 0 -30 0 0 -105z"/>
<path d="M15290 11485 l0 -105 25 0 25 0 0 105 0 105 -25 0 -25 0 0 -105z"/>
<path d="M22010 11485 l0 -105 30 0 30 0 0 105 0 105 -30 0 -30 0 0 -105z"/>
<path d="M1120 11492 c-65 -32 -86 -116 -45 -179 21 -32 89 -63 140 -63 57 0
120 32 140 71 26 49 15 116 -24 151 -17 15 -38 28 -46 28 -25 0 -17 -30 15
-57 50 -41 38 -111 -21 -132 -59 -20 -59 -20 -59 94 l0 105 -32 0 c-18 0 -49
-8 -68 -18z m60 -113 c0 -79 0 -80 -22 -74 -33 9 -68 52 -68 81 0 30 41 74 70
74 18 0 20 -6 20 -81z"/>
<path d="M962 11178 c3 -20 10 -23 59 -26 l56 -3 -16 -44 c-14 -40 -14 -46 1
-79 23 -48 80 -76 153 -76 123 0 190 88 135 178 -16 26 -17 32 -5 32 8 0 15 9
15 20 0 19 -7 20 -201 20 l-200 0 3 -22z m338 -47 c36 -26 35 -86 -1 -113 -33
-25 -122 -27 -167 -4 -61 32 -51 109 18 133 44 16 118 8 150 -16z"/>
<path d="M10752 11162 c-9 -6 -12 -35 -10 -108 l3 -99 28 -3 28 -3 -3 108 c-2
86 -6 108 -18 110 -8 2 -21 -1 -28 -5z"/>
<path d="M15297 11164 c-4 -4 -7 -54 -7 -111 l0 -103 25 0 26 0 -3 107 c-2 88
-6 108 -18 111 -9 1 -19 0 -23 -4z"/>
<path d="M22023 11163 c-9 -3 -13 -35 -13 -109 l0 -105 28 3 27 3 0 105 c0
108 -5 119 -42 103z"/>
<path d="M960 10860 c0 -15 7 -20 25 -20 18 0 25 5 25 20 0 15 -7 20 -25 20
-18 0 -25 -5 -25 -20z"/>
<path d="M1060 10860 c0 -19 7 -20 150 -20 143 0 150 1 150 20 0 19 -7 20
-150 20 -143 0 -150 -1 -150 -20z"/>
<path d="M1060 10770 c0 -21 8 -24 144 -56 42 -10 76 -21 76 -24 0 -4 -48 -18
-107 -32 -100 -23 -108 -27 -111 -50 -3 -25 1 -27 112 -54 64 -15 110 -31 104
-35 -7 -3 -59 -17 -115 -29 -95 -21 -103 -25 -103 -47 0 -12 3 -23 8 -23 4 0
70 17 147 39 131 36 140 40 143 64 3 24 0 26 -95 48 -54 12 -104 25 -112 29
-12 7 88 38 177 56 28 6 33 10 30 32 -3 25 -12 29 -138 64 -74 21 -141 38
-147 38 -7 0 -13 -9 -13 -20z"/>
<path d="M10747 10733 c-4 -3 -7 -50 -7 -104 0 -89 2 -98 20 -104 11 -3 24 -3
30 0 6 3 10 51 10 111 0 102 0 104 -23 104 -13 0 -27 -3 -30 -7z"/>
<path d="M15292 10633 c3 -100 4 -108 23 -108 19 0 20 8 23 108 l3 107 -26 0
-26 0 3 -107z"/>
<path d="M22012 10633 c3 -108 3 -108 28 -108 l25 0 0 105 0 105 -28 3 -28 3
3 -108z"/>
<path d="M1062 10368 c2 -18 23 -28 123 -62 l120 -40 -122 -38 c-115 -36 -123
-40 -123 -64 0 -17 5 -25 13 -22 266 94 298 102 325 87 17 -9 28 -25 30 -42 5
-37 42 -39 42 -1 0 61 -24 76 -255 158 -72 25 -136 46 -144 46 -7 0 -11 -9 -9
-22z"/>
<path d="M10740 10205 l0 -105 30 0 30 0 0 105 0 105 -30 0 -30 0 0 -105z"/>
<path d="M15290 10205 l0 -105 25 0 25 0 0 105 0 105 -25 0 -25 0 0 -105z"/>
<path d="M22010 10205 l0 -105 30 0 30 0 0 105 0 105 -30 0 -30 0 0 -105z"/>
<path d="M1330 10105 c0 -12 -19 -15 -115 -15 -132 0 -148 -8 -160 -79 -12
-71 26 -141 77 -141 27 0 22 35 -7 48 -45 21 -46 103 0 124 35 16 52 -2 60
-65 10 -72 28 -103 68 -116 89 -30 147 59 98 150 -19 35 -19 36 0 47 26 17 26
62 -1 62 -11 0 -20 -7 -20 -15z m-22 -91 c38 -43 21 -114 -28 -114 -18 0 -50
24 -50 38 -1 4 -5 27 -10 52 -4 25 -6 49 -3 53 9 15 68 -4 91 -29z"/>
<path d="M5704 9929 c-3 -6 14 -32 40 -58 l46 -46 -47 -48 c-37 -37 -45 -49
-35 -59 10 -10 22 -2 60 35 l48 47 44 -45 c44 -45 70 -57 70 -32 0 7 -20 33
-45 57 l-45 44 47 48 c37 38 45 50 35 60 -10 10 -22 2 -60 -35 l-48 -47 -44
45 c-47 47 -55 52 -66 34z"/>
<path d="M10742 9778 l3 -103 28 -3 27 -3 0 105 0 106 -30 0 -31 0 3 -102z"/>
<path d="M15290 9775 l0 -105 25 0 25 0 0 105 0 105 -25 0 -25 0 0 -105z"/>
<path d="M22010 9774 l0 -105 28 3 27 3 3 103 3 102 -31 0 -30 0 0 -106z"/>
<path d="M1181 9781 c-10 -10 -21 -25 -23 -32 -4 -11 -11 -9 -30 9 -16 14 -37
22 -62 22 -82 0 -106 -42 -106 -185 l0 -95 200 0 200 0 0 100 c0 110 -13 157
-51 184 -33 22 -104 21 -128 -3z m113 -53 c11 -16 16 -46 16 -100 l0 -78 -65
0 -65 0 0 78 c0 94 15 122 65 122 24 0 39 -7 49 -22z m-182 -15 c14 -13 18
-31 18 -90 l0 -73 -60 0 -60 0 0 68 c0 79 17 112 57 112 15 0 35 -7 45 -17z"/>
<path d="M10744 9447 c-3 -8 -3 -56 -2 -108 3 -93 3 -94 28 -94 25 0 25 0 28
108 l3 107 -26 0 c-14 0 -28 -6 -31 -13z"/>
<path d="M15290 9349 c0 -109 0 -110 23 -107 21 3 22 8 25 111 l3 107 -26 0
-25 0 0 -111z"/>
<path d="M22012 9353 c3 -108 3 -108 28 -108 l25 0 0 105 0 105 -28 3 -28 3 3
-108z"/>
<path d="M10740 8925 l0 -105 30 0 30 0 0 105 0 105 -30 0 -30 0 0 -105z"/>
<path d="M15290 8925 l0 -105 25 0 25 0 0 105 0 105 -25 0 -25 0 0 -105z"/>
<path d="M22010 8925 l0 -105 30 0 30 0 0 105 0 105 -30 0 -30 0 0 -105z"/>
<path d="M10740 8495 l0 -105 30 0 30 0 0 105 0 105 -30 0 -30 0 0 -105z"/>
<path d="M15290 8495 l0 -105 25 0 25 0 0 105 0 105 -25 0 -25 0 0 -105z"/>
<path d="M22010 8495 l0 -105 30 0 30 0 0 105 0 105 -30 0 -30 0 0 -105z"/>
<path d="M10744 8167 c-3 -8 -3 -56 -2 -108 3 -93 3 -94 28 -94 25 0 25 0 28
108 l3 107 -26 0 c-14 0 -28 -6 -31 -13z"/>
<path d="M15290 8070 l0 -110 25 0 25 0 0 110 0 110 -25 0 -25 0 0 -110z"/>
<path d="M22012 8073 c3 -108 3 -108 28 -108 l25 0 0 105 0 105 -28 3 -28 3 3
-108z"/>
<path d="M2184 7910 c-44 -17 -59 -58 -59 -157 0 -77 3 -96 21 -120 44 -59
123 -51 156 17 26 51 25 174 -2 218 -28 45 -70 61 -116 42z m83 -47 c14 -20
18 -47 18 -108 0 -98 -18 -135 -65 -135 -36 0 -56 27 -65 92 -7 49 8 142 27
165 19 23 66 16 85 -14z"/>
<path d="M2434 7910 c-44 -17 -59 -58 -59 -157 0 -77 3 -96 21 -120 44 -59
123 -51 156 17 26 51 25 174 -2 218 -28 45 -70 61 -116 42z m83 -47 c14 -20
18 -47 18 -108 0 -98 -18 -135 -65 -135 -36 0 -56 27 -65 92 -7 49 8 142 27
165 19 23 66 16 85 -14z"/>
<path d="M1982 7885 c-8 -16 -23 -28 -42 -31 -43 -9 -39 -34 5 -34 l35 0 0
-110 c0 -91 3 -110 15 -110 13 0 15 24 15 155 0 85 -4 155 -8 155 -5 0 -14
-11 -20 -25z"/>
<path d="M10740 7645 l0 -105 30 0 30 0 0 105 0 105 -30 0 -30 0 0 -105z"/>
<path d="M15290 7645 l0 -105 25 0 25 0 0 105 0 105 -25 0 -25 0 0 -105z"/>
<path d="M22010 7645 l0 -105 30 0 30 0 0 105 0 105 -30 0 -30 0 0 -105z"/>
<path d="M10740 7215 l0 -105 30 0 30 0 0 105 0 105 -30 0 -30 0 0 -105z"/>
<path d="M15290 7215 l0 -105 25 0 25 0 0 105 0 105 -25 0 -25 0 0 -105z"/>
<path d="M22010 7215 l0 -105 30 0 30 0 0 105 0 105 -30 0 -30 0 0 -105z"/>
<path d="M10744 6887 c-3 -8 -3 -56 -2 -108 3 -93 3 -94 28 -94 25 0 25 0 28
108 l3 107 -26 0 c-14 0 -28 -6 -31 -13z"/>
<path d="M15290 6790 l0 -110 25 0 25 0 0 110 0 110 -25 0 -25 0 0 -110z"/>
<path d="M22012 6793 c3 -108 3 -108 28 -108 l25 0 0 105 0 105 -28 3 -28 3 3
-108z"/>
<path d="M10740 6365 l0 -105 30 0 30 0 0 105 0 105 -30 0 -30 0 0 -105z"/>
<path d="M15290 6365 l0 -105 25 0 25 0 0 105 0 105 -25 0 -25 0 0 -105z"/>
<path d="M22010 6365 l0 -105 30 0 30 0 0 105 0 105 -30 0 -30 0 0 -105z"/>
<path d="M10740 5935 l0 -105 30 0 30 0 0 105 0 105 -30 0 -30 0 0 -105z"/>
<path d="M15290 5935 l0 -105 25 0 25 0 0 105 0 105 -25 0 -25 0 0 -105z"/>
<path d="M22010 5935 l0 -105 30 0 30 0 0 105 0 105 -30 0 -30 0 0 -105z"/>
<path d="M10745 5607 c-3 -7 -4 -56 -3 -108 3 -93 3 -94 28 -94 l25 0 0 105
c0 101 -1 105 -23 108 -12 2 -24 -3 -27 -11z"/>
<path d="M15290 5510 l0 -110 25 0 25 0 0 110 0 110 -25 0 -25 0 0 -110z"/>
<path d="M22015 5607 c-3 -7 -4 -56 -3 -108 3 -93 3 -94 28 -94 l25 0 0 105
c0 101 -1 105 -23 108 -12 2 -24 -3 -27 -11z"/>
<path d="M10740 5085 l0 -105 30 0 30 0 0 105 0 105 -30 0 -30 0 0 -105z"/>
<path d="M15290 5085 l0 -105 25 0 25 0 0 105 0 105 -25 0 -25 0 0 -105z"/>
<path d="M22010 5085 l0 -105 30 0 30 0 0 105 0 105 -30 0 -30 0 0 -105z"/>
<path d="M23730 4927 c0 -7 18 -31 40 -52 22 -21 40 -44 40 -50 0 -6 -18 -29
-40 -50 -40 -39 -51 -65 -27 -65 7 0 31 18 52 40 21 22 44 40 49 40 6 0 30
-19 53 -42 32 -31 46 -39 54 -31 8 8 0 24 -34 60 l-45 48 45 48 c34 36 43 51
34 60 -8 8 -23 -1 -59 -36 l-48 -47 -44 45 c-44 45 -70 57 -70 32z"/>
<path d="M10740 4655 l0 -105 30 0 30 0 0 105 0 105 -30 0 -30 0 0 -105z"/>
<path d="M15290 4655 l0 -105 25 0 25 0 0 105 0 105 -25 0 -25 0 0 -105z"/>
<path d="M22010 4655 l0 -105 30 0 30 0 0 105 0 105 -30 0 -30 0 0 -105z"/>
<path d="M10745 4327 c-3 -7 -4 -56 -3 -108 3 -93 3 -94 28 -94 l25 0 0 105
c0 101 -1 105 -23 108 -12 2 -24 -3 -27 -11z"/>
<path d="M15290 4230 l0 -110 25 0 25 0 0 110 0 110 -25 0 -25 0 0 -110z"/>
<path d="M22015 4327 c-3 -7 -4 -56 -3 -108 3 -93 3 -94 28 -94 l25 0 0 105
c0 101 -1 105 -23 108 -12 2 -24 -3 -27 -11z"/>
<path d="M27330 4103 c0 -4 21 -29 47 -55 l47 -48 -47 -48 c-26 -26 -47 -51
-47 -55 0 -20 39 -2 77 35 l43 42 50 -49 c42 -41 50 -46 56 -31 5 12 -6 30
-37 62 l-43 44 42 43 c71 73 48 96 -25 25 l-43 -42 -43 42 c-38 37 -77 55 -77
35z"/>
<path d="M10740 3805 l0 -105 30 0 30 0 0 105 0 105 -30 0 -30 0 0 -105z"/>
<path d="M15290 3805 l0 -105 25 0 25 0 0 105 0 105 -25 0 -25 0 0 -105z"/>
<path d="M22010 3805 l0 -105 30 0 30 0 0 105 0 105 -30 0 -30 0 0 -105z"/>
<path d="M25530 3777 c0 -7 20 -33 45 -57 l45 -44 -47 -48 c-35 -36 -44 -51
-36 -59 9 -9 24 0 60 34 l48 45 48 -45 c36 -34 52 -42 60 -34 8 8 -1 24 -36
59 l-47 48 45 44 c25 24 45 50 45 57 0 24 -26 13 -65 -27 -21 -22 -44 -40 -50
-40 -6 0 -29 18 -50 40 -39 40 -65 51 -65 27z"/>
<path d="M4925 3551 c-65 -40 -90 -102 -74 -188 10 -57 62 -112 106 -115 83
-4 115 8 143 55 28 45 26 67 -5 67 -18 0 -25 -5 -25 -20 0 -58 -98 -82 -144
-37 -48 48 -42 155 11 197 40 31 80 26 119 -15 51 -54 80 -46 49 14 -28 56
-122 78 -180 42z"/>
<path d="M5690 3557 c-17 -9 -26 -22 -28 -45 -2 -24 -8 -32 -23 -32 -12 0 -19
-7 -19 -20 0 -13 7 -20 20 -20 19 0 20 -7 20 -95 0 -88 1 -95 20 -95 19 0 20
7 20 95 0 88 1 95 20 95 13 0 20 7 20 20 0 14 -7 20 -21 20 -30 0 -22 44 9 48
25 4 30 27 6 36 -19 7 -14 8 -44 -7z"/>
<path d="M5770 3535 c0 -18 5 -25 20 -25 15 0 20 7 20 25 0 18 -5 25 -20 25
-15 0 -20 -7 -20 -25z"/>
<path d="M6020 3510 c0 -47 -1 -50 -19 -40 -25 13 -77 13 -102 0 -26 -15 -49
-62 -49 -105 0 -43 23 -90 49 -105 27 -14 94 -13 109 2 9 9 12 9 12 0 0 -7 9
-12 20 -12 19 0 20 7 20 155 0 148 -1 155 -20 155 -17 0 -20 -7 -20 -50z m-18
-87 c23 -21 24 -89 1 -115 -9 -10 -30 -18 -49 -18 -38 0 -56 24 -56 75 0 50
18 75 54 75 17 0 40 -7 50 -17z"/>
<path d="M7160 3405 l0 -155 25 0 25 0 0 155 0 155 -25 0 -25 0 0 -155z"/>
<path d="M8450 3405 c0 -148 1 -155 20 -155 19 0 20 7 20 155 0 148 -1 155
-20 155 -19 0 -20 -7 -20 -155z"/>
<path d="M7510 3510 c0 -20 -5 -30 -15 -30 -8 0 -15 -9 -15 -20 0 -11 7 -20
15 -20 12 0 15 -15 15 -79 0 -90 12 -111 61 -111 22 0 29 5 29 20 0 13 -7 20
-20 20 -18 0 -20 7 -20 75 0 68 2 75 20 75 13 0 20 7 20 20 0 13 -7 20 -20 20
-16 0 -20 7 -20 30 0 25 -4 30 -25 30 -21 0 -25 -5 -25 -30z"/>
<path d="M5194 3462 c-30 -24 -44 -55 -44 -97 0 -71 41 -114 107 -115 33 0 50
7 75 29 30 27 33 35 33 86 0 51 -3 59 -33 86 -38 34 -103 40 -138 11z m108
-39 c23 -21 24 -89 1 -115 -32 -35 -87 -21 -103 26 -11 35 0 83 23 98 20 13
60 9 79 -9z"/>
<path d="M5404 3467 c-2 -7 -3 -58 -2 -113 3 -94 4 -99 26 -102 21 -3 22 -1
22 75 0 95 11 116 60 111 l35 -3 3 -92 c2 -85 4 -93 22 -93 19 0 20 7 20 98 0
83 -3 102 -18 115 -21 19 -73 22 -102 7 -13 -7 -21 -7 -25 0 -9 14 -35 12 -41
-3z"/>
<path d="M5770 3365 c0 -108 1 -115 20 -115 19 0 20 7 20 115 0 108 -1 115
-20 115 -19 0 -20 -7 -20 -115z"/>
<path d="M6138 3451 c-30 -27 -33 -35 -33 -86 0 -51 3 -59 33 -86 45 -41 102
-41 143 0 16 16 29 34 29 40 0 19 -39 12 -50 -9 -15 -28 -85 -28 -100 -1 -19
37 -12 41 70 41 90 0 95 6 66 75 -27 63 -103 76 -158 26z m110 -23 c26 -26 13
-38 -43 -38 -59 0 -60 1 -45 31 12 22 68 27 88 7z"/>
<path d="M6340 3365 c0 -106 2 -115 19 -115 16 0 19 10 23 79 5 88 17 111 57
111 43 0 51 -17 51 -107 0 -76 2 -83 20 -83 19 0 20 7 20 95 0 82 -3 98 -20
115 -25 25 -86 27 -112 3 -17 -15 -18 -15 -18 0 0 10 -8 17 -20 17 -19 0 -20
-7 -20 -115z"/>
<path d="M6599 3451 c-25 -26 -29 -37 -29 -86 0 -49 4 -60 29 -86 24 -23 38
-29 73 -29 24 0 50 6 59 13 18 13 39 50 39 66 0 21 -37 10 -48 -14 -16 -36
-75 -36 -98 0 -18 28 -14 85 7 111 18 22 76 18 89 -6 13 -24 50 -27 50 -5 0 9
-11 27 -25 40 -37 37 -106 35 -146 -4z"/>
<path d="M6837 3460 c-53 -42 -53 -143 -2 -187 39 -34 108 -32 140 3 14 15 25
33 25 40 0 21 -38 16 -50 -6 -14 -26 -70 -27 -93 -2 -32 35 -21 42 63 42 l80
0 0 36 c0 78 -100 123 -163 74z m111 -47 l14 -23 -61 0 c-33 0 -61 3 -61 7 0
3 8 15 17 25 23 25 71 20 91 -9z"/>
<path d="M7260 3364 c0 -114 0 -115 23 -112 20 3 22 9 25 83 2 43 8 85 14 92
15 19 74 17 82 -3 3 -9 6 -51 6 -95 0 -72 2 -79 20 -79 19 0 20 7 20 95 0 82
-3 98 -20 115 -23 23 -88 27 -109 8 -11 -10 -14 -10 -18 0 -3 6 -13 12 -24 12
-18 0 -19 -8 -19 -116z"/>
<path d="M7660 3451 c-16 -16 -32 -40 -36 -55 -27 -111 99 -194 177 -117 16
16 29 34 29 40 0 19 -39 12 -50 -9 -15 -28 -85 -28 -100 -1 -19 37 -12 41 70
41 90 0 95 6 66 75 -27 63 -106 76 -156 26z m108 -23 c26 -26 13 -38 -43 -38
-59 0 -60 1 -45 31 12 22 68 27 88 7z"/>
<path d="M7860 3365 c0 -108 1 -115 20 -115 18 0 20 7 21 58 1 80 10 104 44
122 17 8 33 19 36 23 4 5 24 -39 45 -97 33 -90 41 -106 60 -106 19 0 27 15 59
103 21 56 40 108 43 115 3 10 -2 13 -19 10 -20 -2 -28 -15 -49 -80 -14 -42
-27 -79 -31 -82 -3 -3 -17 33 -33 79 l-27 85 -42 0 c-24 0 -53 -7 -65 -16 -20
-14 -22 -14 -22 0 0 9 -9 16 -20 16 -19 0 -20 -7 -20 -115z"/>
<path d="M8242 3463 c-11 -10 -23 -28 -27 -40 -5 -19 -2 -23 14 -23 11 0 25 9
31 21 16 28 85 24 85 -6 0 -16 -11 -22 -55 -32 -65 -14 -94 -43 -85 -82 3 -14
13 -32 22 -38 21 -16 77 -17 106 -2 16 9 22 9 25 0 6 -17 62 -14 62 3 0 8 -4
17 -9 20 -4 3 -11 42 -13 87 -4 65 -9 85 -23 95 -27 20 -108 18 -133 -3z m108
-126 c0 -32 -18 -47 -57 -47 -37 0 -53 21 -33 45 10 12 28 18 78 24 6 0 12 -9
12 -22z"/>
<path d="M8550 3460 c-25 -25 -26 -62 -2 -82 9 -9 40 -22 67 -30 38 -10 50
-18 50 -33 0 -16 -8 -21 -43 -23 -37 -3 -44 0 -49 17 -7 28 -43 28 -43 1 0
-60 116 -85 165 -35 14 13 25 33 25 44 0 21 -36 61 -54 61 -6 0 -28 5 -48 11
-27 7 -38 15 -38 29 0 16 7 20 35 20 22 0 38 -6 41 -15 6 -16 54 -21 54 -6 0
4 -9 20 -21 35 -17 22 -28 26 -70 26 -36 0 -54 -5 -69 -20z"/>
<path d="M8760 3450 c0 -25 4 -30 25 -30 21 0 25 5 25 30 0 25 -4 30 -25 30
-21 0 -25 -5 -25 -30z"/>
<path d="M10740 3455 l0 -25 -685 0 -685 0 0 -30 0 -30 685 0 685 0 0 -50 c0
-49 1 -50 30 -50 29 0 30 1 30 50 l0 50 690 0 690 0 0 30 0 30 -690 0 -690 0
0 25 c0 21 -5 25 -30 25 -25 0 -30 -4 -30 -25z"/>
<path d="M15290 3455 l0 -25 -560 0 -560 0 0 -30 0 -30 560 0 560 0 0 -50 c0
-47 2 -50 25 -50 23 0 25 3 25 50 l0 50 565 0 565 0 0 30 0 30 -565 0 -565 0
0 25 c0 20 -5 25 -25 25 -20 0 -25 -5 -25 -25z"/>
<path d="M22010 3455 l0 -25 -165 0 -165 0 0 -30 0 -30 165 0 165 0 0 -50 c0
-49 1 -50 30 -50 29 0 30 1 30 50 l0 50 165 0 165 0 0 30 0 30 -165 0 -165 0
0 25 c0 21 -5 25 -30 25 -25 0 -30 -4 -30 -25z"/>
<path d="M2434 3320 c-44 -17 -59 -58 -59 -157 0 -77 3 -96 21 -120 44 -59
123 -51 156 17 26 51 25 174 -2 218 -28 45 -70 61 -116 42z m83 -47 c14 -20
18 -47 18 -108 0 -98 -18 -135 -65 -135 -36 0 -56 27 -65 92 -7 49 8 142 27
165 19 23 66 16 85 -14z"/>
<path d="M8760 3280 c0 -25 4 -30 25 -30 21 0 25 5 25 30 0 25 -4 30 -25 30
-21 0 -25 -5 -25 -30z"/>
<path d="M10745 3047 c-3 -7 -4 -56 -3 -108 l3 -94 28 -3 28 -3 -3 108 c-3
103 -4 108 -26 111 -12 2 -24 -3 -27 -11z"/>
<path d="M15290 2950 l0 -110 25 0 25 0 0 110 0 110 -25 0 -25 0 0 -110z"/>
<path d="M22017 3054 c-4 -4 -7 -54 -7 -111 l0 -104 28 3 27 3 0 105 c0 98 -1
105 -20 108 -12 2 -24 0 -28 -4z"/>
<path d="M10740 2525 l0 -105 30 0 30 0 0 105 0 105 -30 0 -30 0 0 -105z"/>
<path d="M15290 2525 l0 -105 25 0 25 0 0 105 0 105 -25 0 -25 0 0 -105z"/>
<path d="M22010 2525 l0 -105 30 0 30 0 0 105 0 105 -30 0 -30 0 0 -105z"/>
<path d="M7214 2161 c-44 -19 -75 -101 -39 -101 8 0 15 8 15 18 0 60 84 86
116 36 26 -38 9 -72 -63 -124 -59 -43 -93 -88 -93 -124 0 -14 15 -16 100 -16
82 0 100 3 100 15 0 12 -16 15 -80 15 -60 0 -80 3 -80 13 0 15 31 45 75 71 61
37 85 67 85 107 0 69 -73 117 -136 90z"/>
<path d="M7454 2160 c-44 -17 -59 -58 -59 -157 0 -77 3 -96 21 -120 44 -59
123 -51 156 17 26 51 25 174 -2 218 -28 45 -70 61 -116 42z m83 -47 c25 -38
25 -178 0 -216 -23 -35 -70 -37 -91 -4 -32 49 -28 193 6 234 19 23 66 16 85
-14z"/>
<path d="M7944 2160 c-44 -17 -59 -58 -59 -157 0 -77 3 -96 21 -120 44 -59
123 -51 156 17 26 51 25 174 -2 218 -28 45 -70 61 -116 42z m83 -47 c25 -38
25 -178 0 -216 -23 -35 -70 -37 -91 -4 -32 49 -28 193 6 234 19 23 66 16 85
-14z"/>
<path d="M12624 2161 c-44 -19 -75 -101 -39 -101 8 0 15 8 15 18 0 60 84 86
116 36 26 -38 9 -72 -63 -124 -59 -43 -93 -88 -93 -124 0 -14 15 -16 100 -16
82 0 100 3 100 15 0 12 -16 15 -80 15 -60 0 -80 3 -80 13 0 15 31 45 75 71 61
37 85 67 85 107 0 69 -73 117 -136 90z"/>
<path d="M12864 2160 c-44 -17 -59 -58 -59 -157 0 -77 3 -96 21 -120 44 -59
123 -51 156 17 26 51 25 174 -2 218 -28 45 -70 61 -116 42z m83 -47 c14 -20
18 -47 18 -108 0 -98 -18 -135 -65 -135 -36 0 -56 27 -65 92 -7 49 8 142 27
165 19 23 66 16 85 -14z"/>
<path d="M13344 2156 c-22 -10 -35 -25 -44 -51 -7 -20 -9 -39 -6 -42 11 -11
36 7 36 26 0 52 77 70 107 25 15 -24 15 -29 2 -53 -9 -16 -25 -27 -42 -29 -35
-4 -36 -32 -2 -32 14 0 34 -9 45 -20 45 -45 9 -114 -58 -108 -31 2 -40 9 -52
35 -18 38 -51 46 -43 11 8 -33 41 -66 74 -73 38 -8 95 11 114 38 22 32 19 93
-6 118 -19 19 -19 22 -5 38 18 20 21 63 6 91 -9 17 -59 40 -84 40 -6 -1 -25
-7 -42 -14z"/>
<path d="M18024 2161 c-44 -19 -75 -101 -39 -101 8 0 15 8 15 18 0 60 84 86
116 36 26 -38 9 -72 -63 -124 -59 -43 -93 -88 -93 -124 0 -14 15 -16 100 -16
82 0 100 3 100 15 0 12 -16 15 -80 15 -60 0 -80 3 -80 13 0 15 31 45 75 71 61
37 85 67 85 107 0 69 -73 117 -136 90z"/>
<path d="M18274 2160 c-44 -17 -59 -58 -59 -157 0 -77 3 -96 21 -120 44 -59
123 -51 156 17 26 51 25 174 -2 218 -28 45 -70 61 -116 42z m83 -47 c14 -20
18 -47 18 -108 0 -98 -18 -135 -65 -135 -36 0 -56 27 -65 92 -7 49 8 142 27
165 19 23 66 16 85 -14z"/>
<path d="M18771 2157 c-57 -28 -88 -156 -59 -242 18 -54 71 -82 123 -65 46 15
65 44 65 100 0 35 -5 52 -22 68 -33 30 -71 37 -109 18 -18 -9 -33 -16 -34 -16
-9 0 19 88 32 102 24 27 69 23 89 -7 14 -21 44 -35 44 -20 0 21 -28 56 -53 65
-38 13 -46 13 -76 -3z m83 -159 c36 -51 9 -128 -45 -128 -39 0 -69 32 -69 73
0 48 24 77 65 77 24 0 39 -7 49 -22z"/>
<path d="M23434 2161 c-44 -19 -75 -101 -39 -101 8 0 15 8 15 18 0 60 84 86
116 36 26 -38 9 -72 -63 -124 -59 -43 -93 -88 -93 -124 0 -14 15 -16 100 -16
82 0 100 3 100 15 0 12 -16 15 -80 15 -60 0 -80 3 -80 13 0 15 31 45 75 71 61
37 85 67 85 107 0 69 -73 117 -136 90z"/>
<path d="M23684 2160 c-44 -17 -59 -58 -59 -157 0 -77 3 -96 21 -120 44 -59
123 -51 156 17 26 51 25 174 -2 218 -28 45 -70 61 -116 42z m83 -47 c14 -20
18 -47 18 -108 0 -98 -18 -135 -65 -135 -36 0 -56 27 -65 92 -7 49 8 142 27
165 19 23 66 16 85 -14z"/>
<path d="M24164 2156 c-38 -17 -59 -63 -51 -112 11 -69 69 -100 129 -70 17 9
33 15 34 13 8 -7 -16 -81 -32 -98 -24 -27 -75 -22 -89 9 -12 28 -45 31 -38 3
15 -60 107 -77 149 -28 57 67 59 227 2 274 -24 20 -70 24 -104 9z m88 -33 c23
-21 24 -89 1 -115 -20 -23 -76 -24 -94 -2 -20 24 -17 89 5 113 23 25 63 27 88
4z"/>
<path d="M7742 2135 c-8 -16 -23 -28 -42 -31 -43 -9 -39 -34 5 -34 l35 0 0
-110 c0 -91 3 -110 15 -110 13 0 15 24 15 155 0 85 -4 155 -8 155 -5 0 -14
-11 -20 -25z"/>
<path d="M13142 2135 c-8 -16 -23 -28 -42 -31 -43 -9 -39 -34 5 -34 l35 0 0
-110 c0 -91 3 -110 15 -110 13 0 15 24 15 155 0 85 -4 155 -8 155 -5 0 -14
-11 -20 -25z"/>
<path d="M18552 2135 c-8 -16 -23 -28 -42 -31 -43 -9 -39 -34 5 -34 l35 0 0
-110 c0 -91 3 -110 15 -110 13 0 15 24 15 155 0 85 -4 155 -8 155 -5 0 -14
-11 -20 -25z"/>
<path d="M23962 2135 c-8 -16 -23 -28 -42 -31 -43 -9 -39 -34 5 -34 l35 0 0
-110 c0 -91 3 -110 15 -110 13 0 15 24 15 155 0 85 -4 155 -8 155 -5 0 -14
-11 -20 -25z"/>
<path d="M15190 1605 c0 -3 32 -55 70 -117 l70 -112 0 -83 c0 -82 0 -83 25
-83 25 0 25 1 25 78 0 77 1 79 53 163 29 46 63 101 76 122 l23 37 -30 0 c-28
0 -35 -8 -83 -90 -28 -50 -55 -92 -59 -95 -3 -2 -31 39 -61 90 -47 83 -57 95
-81 95 -16 0 -28 -2 -28 -5z"/>
<path d="M15593 1505 c-87 -38 -110 -186 -40 -261 57 -62 154 -53 197 18 20
33 20 33 0 36 -13 2 -30 -8 -46 -27 -48 -57 -124 -31 -140 47 l-6 32 106 0
106 0 0 38 c0 46 -30 96 -69 117 -37 18 -66 19 -108 0z m106 -51 c12 -15 21
-35 21 -45 0 -17 -9 -19 -81 -19 -79 0 -80 0 -74 23 21 67 95 90 134 41z"/>
<path d="M15893 1505 c-49 -21 -74 -85 -33 -85 11 0 20 5 20 10 0 23 41 50 75
50 26 0 39 -6 52 -26 24 -38 8 -57 -63 -70 -77 -14 -100 -27 -113 -65 -8 -24
-7 -39 4 -65 23 -54 83 -69 146 -35 35 19 36 19 47 0 16 -26 62 -26 62 0 0 10
-7 21 -15 25 -12 4 -15 26 -15 111 0 59 -4 115 -10 125 -20 37 -100 50 -157
25z m124 -182 c-11 -70 -91 -108 -132 -63 -35 39 -2 80 75 93 62 10 63 10 57
-30z"/>
<path d="M16211 1494 c-30 -25 -31 -25 -31 -5 0 14 -6 21 -20 21 -19 0 -20 -7
-20 -150 0 -143 1 -150 20 -150 18 0 20 7 20 83 0 131 21 177 79 177 16 0 21
6 21 25 0 33 -29 33 -69 -1z"/>
</g>
</svg>
